<?xml version="1.0" encoding="UTF-8" standalone="no"?>
<svg
   width="1006.9059pt"
   height="1008.2872pt"
   version="1.1"
   viewBox="0 0 1006.9059 1008.2872"
   id="svg1"
   sodipodi:docname="noun-abstract-6171898.svg"
   xml:space="preserve"
   inkscape:export-filename="noun-abstract-6171898.svg"
   inkscape:export-xdpi="96"
   inkscape:export-ydpi="96"
   xmlns:inkscape="http://www.inkscape.org/namespaces/inkscape"
   xmlns:sodipodi="http://sodipodi.sourceforge.net/DTD/sodipodi-0.dtd"
   xmlns="http://www.w3.org/2000/svg"
   xmlns:svg="http://www.w3.org/2000/svg"><defs
     id="defs1" /><sodipodi:namedview
     id="namedview1"
     pagecolor="#505050"
     bordercolor="#ffffff"
     borderopacity="1"
     inkscape:showpageshadow="0"
     inkscape:pageopacity="0"
     inkscape:pagecheckerboard="1"
     inkscape:deskcolor="#505050"
     inkscape:document-units="pt" /><g
     inkscape:groupmode="layer"
     id="layer1"
     inkscape:label="bg"
     style="display:none"
     transform="translate(4.1436158,6.9060666)"><rect
       style="fill:#f9f9f9;stroke-width:0.598379"
       id="rect1"
       width="1000"
       height="1000"
       x="-3.5527137e-15"
       y="3.5527137e-15"
       inkscape:label="rect1" /></g><ellipse
     style="fill:#ffffff;stroke-width:0.752066"
     id="path35"
     cx="503.453"
     cy="503.45303"
     rx="503.453"
     ry="503.45303" /><rect
     style="fill:#ffffff;stroke-width:0.694365"
     id="rect34"
     width="505.52484"
     height="497.23755"
     x="2.7624004"
     y="511.04971" /><path
     d="m 88.143616,606.90607 c 0,-284.98 231.020004,-516.000003 516.000004,-516.000003 284.98,0 515.99998,231.020003 515.99998,516.000003 0,284.98 -231.01998,516.00003 -515.99998,516.00003 H 88.143616 Z M 797.47362,1073.0761 c 182.71,-75.85903 311.19998,-256.01003 311.19998,-466.17003 0,-278.64 -225.88998,-504.54 -504.52998,-504.54 -210.16,0 -390.31,128.5 -466.17,311.21 80.125,-163.91 248.5,-276.8 443.23,-276.8 272.31,0 493.06998,220.75 493.06998,493.07 0,194.74 -112.88998,363.11 -276.79998,443.23003 z m -590.86,-155.45003 c -7.9648,-10.18 -15.551,-20.668 -22.73,-31.453 9.6797,-2.6523 19.871,-4.0703 30.391,-4.0703 63.328,0 114.67,51.34 114.67,114.67 0,10.52003 -1.418,20.71103 -4.0703,30.39103 -10.785,-7.1797 -21.273,-14.766 -31.453,-22.73 -6.6406,-44.77003 -42.035,-80.16403 -86.805,-86.80503 z m 11.676,14.367 c 18.496,21.93 38.832,42.266 60.762,60.762 -8.8945,-28.992 -31.77,-51.867 -60.762,-60.762 z m 136.38,113.55003 c -6.6797,-3.8086 -13.266,-7.7617 -19.746,-11.863 3.5664,-11.672 5.4844,-24.066 5.4844,-36.91003 0,-69.66 -56.473,-126.13 -126.13,-126.13 -12.844,0 -25.238,1.918 -36.91,5.4844 -4.1016,-6.4805 -8.0547,-13.066 -11.863,-19.746 20.883,-12.777 45.434,-20.141 71.707,-20.141 75.996,0 137.6,61.605 137.6,137.6 0,26.27303 -7.3633,50.82403 -20.141,71.70703 z m 10.035,5.5703 c 4.7773,2.5781 9.5977,5.082 14.465,7.5117 25.793,-28.484 41.504,-66.27003 41.504,-107.72003 0,-88.66 -71.871,-160.53 -160.53,-160.53 -41.453,0 -79.238,15.711 -107.72,41.504 2.4297,4.8672 4.9336,9.6875 7.5117,14.465 22.535,-13.688 48.984,-21.57 77.277,-21.57 82.328,0 149.07,66.738 149.07,149.07 0,28.29303 -7.8828,54.74203 -21.57,77.27703 z m 36.023,17.637 c -3.6367,-1.6016 -7.2461,-3.2461 -10.836,-4.9336 26.312,-30.211 42.25,-69.70303 42.25,-112.91003 0,-94.992 -77.008,-172 -172,-172 -43.211,0 -82.703,15.938 -112.91,42.25 -1.6875,-3.5898 -3.332,-7.1992 -4.9336,-10.836 33.652,-40.227 84.23,-65.812 140.78,-65.812 101.32,0 183.46,82.141 183.46,183.46 0,56.551 -25.586,107.13003 -65.812,140.78003 z m 11.754,5.0078 c 2.6055,1.0703 5.2227,2.1211 7.8516,3.1484 55.504,-36.992 92.074,-100.16003 92.074,-171.87003 0,-113.99 -92.406,-206.4 -206.4,-206.4 -71.711,0 -134.88,36.57 -171.87,92.074 1.0273,2.6289 2.0781,5.2461 3.1484,7.8516 35.707,-40.199 87.793,-65.527 145.79,-65.527 107.66,0 194.93,87.273 194.93,194.93 0,57.996 -25.328,110.08003 -65.527,145.79003 z m 237.53,-237.52003 c 0,117.11 -73.152,217.14003 -176.26,256.88003 84.309,-44.012 141.86,-132.26003 141.86,-233.95003 0,-145.66 -118.08,-263.73 -263.73,-263.73 -101.69,0 -189.93,57.551 -233.95,141.86 39.738,-103.11 139.77,-176.26 256.88,-176.26 151.99,0 275.2,123.21 275.2,275.2 z m -45.867,22.934 c 0,102.36 -60.969,190.48003 -148.57,230.04003 -0.8125,-0.25 -1.625,-0.5039 -2.4375,-0.7578 69.879,-42.148 116.61,-118.79004 116.61,-206.35004 0,-132.99 -107.81,-240.8 -240.8,-240.8 -87.559,0 -164.2,46.727 -206.35,116.61 -0.25391,-0.8125 -0.50391,-1.625 -0.75781,-2.4375 39.555,-87.602 127.68,-148.57 230.04,-148.57 139.32,0 252.27,112.95 252.27,252.27 z m -474.21,-316.12 c 61.438,-150.86 209.54,-257.21 382.47,-257.21 227.98,0 412.8,184.82 412.8,412.8 0,172.94 -106.34,321.04003 -257.21,382.47003 132.06,-65.703 222.81,-202.03003 222.81,-359.54003 0,-221.65 -179.68,-401.34 -401.34,-401.34 -157.51,0 -293.84,90.746 -359.54,222.81 z m 505.7,540.07003 c 124.1,-62.094 209.31,-190.40003 209.31,-338.61003 0,-208.98 -169.42,-378.4 -378.4,-378.4 -148.21,0 -276.52,85.207 -338.61,209.31 57.824,-142.9 197.91,-243.71 361.54,-243.71 215.32,0 389.87,174.55 389.87,389.87 0,163.63 -100.81,303.72003 -243.71,361.54003 z m -197.12,0.5039 c -1.7109,-0.5937 -3.4219,-1.1953 -5.125,-1.8086 54.816,-39.57 90.492,-104.00002 90.492,-176.77002 0,-120.32 -97.543,-217.87 -217.87,-217.87 -72.77,0 -137.2,35.676 -176.77,90.492 -0.61328,-1.7031 -1.2148,-3.4141 -1.8125,-5.125 38.879,-71.352 114.54,-119.77 201.52,-119.77 126.66,0 229.33,102.68 229.33,229.33 0,86.977 -48.414,162.64002 -119.77,201.52002 z m -318.59,-378.71002 c 43.363,-111.06 151.4,-189.74 277.82,-189.74 164.65,0 298.13,133.48 298.13,298.13 0,126.42 -78.68,234.46002 -189.74,277.82002 92.262,-47.637 155.34,-143.89002 155.34,-254.89002 0,-158.32 -128.34,-286.66 -286.66,-286.66 -110.99,0 -207.25,63.078 -254.89,155.34 z m 461.29,-556.68 c -200.85,0 -372.99,122.96 -445.24,297.71 76.52,-155.95 236.88,-263.3 422.31,-263.3 259.65,0 470.12998,210.48 470.12998,470.13 0,185.43 -107.35998,345.79 -263.29998,422.31002 174.75,-72.254 297.70998,-244.39002 297.70998,-445.24002 0,-265.98 -215.61998,-481.6 -481.59998,-481.6 z m 401.33,527.47 c 0,176.12 -101.82,328.47002 -249.8,401.39002 166.79,-68.648 284.19998,-232.77002 284.19998,-424.32002 0,-253.32 -205.34998,-458.67 -458.66998,-458.67 -191.55,0 -355.67,117.42 -424.32,284.2 72.914,-147.98 225.26,-249.8 401.39,-249.8 246.98,0 447.2,200.21 447.2,447.2 z m -561.87,-206.4 c -135.72,0 -251.77,84.211 -298.75,203.23 51.25,-100.22 155.52,-168.83 275.82,-168.83 170.98,0 309.6,138.61 309.6,309.6 0,120.3 -68.605,224.57002 -168.83,275.82002 119.02,-46.984 203.23,-163.03002 203.23,-298.75002 0,-177.32 -143.75,-321.07 -321.07,-321.07 z m -288.73,41.371 c 65.043,-158.82 221.15,-270.7 403.39,-270.7 240.65,0 435.73,195.09 435.73,435.73 0,182.24 -111.88,338.35002 -270.7,403.39002 140.02,-69.309 236.3,-213.64002 236.3,-380.46002 0,-234.32 -189.95,-424.27 -424.27,-424.27 -166.82,0 -311.15,96.277 -380.46,236.3 z m 334.59,-133.1 c -154.32,0 -286.4,95.273 -340.61,230.21 58.48,-116.14 178.78,-195.81 317.68,-195.81 196.32,0 355.47,159.15 355.47,355.47 0,138.9 -79.672,259.20002 -195.81,317.68002 134.94,-54.211 230.21,-186.29002 230.21,-340.61002 0,-202.65 -164.28,-366.93 -366.93,-366.93 z m 286.67,412.8 c 0,129.6 -74.141,241.88002 -182.32,296.75002 126.98,-50.598 216.72,-174.66002 216.72,-319.68002 0,-189.99 -154.02,-344 -344,-344 -145.02,0 -269.09,89.742 -319.68,216.72 54.867,-108.18 167.15,-182.32 296.75,-182.32 183.66,0 332.54,148.88 332.54,332.54 z"
     fill-rule="evenodd"
     fill="#ffffff"
     id="path1-8"
     style="display:none;opacity:1;fill:#ff00ff" /><g
     style="display:inline;fill:none;stroke:#ff00ff;stroke-width:2"
     id="g1"
     transform="matrix(2.7579914,0,0,2.7516355,2.1920028,-160.9437)"><circle
       cx="17"
       cy="407"
       r="15"
       id="circle1" /><circle
       cx="32"
       cy="392"
       r="30"
       id="circle2" /><circle
       cx="47"
       cy="377"
       r="45"
       id="circle3" /><circle
       cx="62"
       cy="362"
       r="60"
       id="circle4" /><circle
       cx="77"
       cy="347"
       r="75"
       id="circle5" /><circle
       cx="92"
       cy="332"
       r="90"
       id="circle6" /><circle
       cx="107"
       cy="317"
       r="105"
       id="circle7" /><circle
       cx="122"
       cy="302"
       r="120"
       id="circle8" /><circle
       cx="137"
       cy="287"
       r="135"
       id="circle9" /><circle
       cx="152"
       cy="272"
       r="150"
       id="circle10" /><circle
       cx="167"
       cy="257"
       r="165"
       id="circle11" /><circle
       cx="182"
       cy="242"
       r="180"
       id="circle12" /></g><path
     style="fill:#ffffff;stroke-width:2.55525"
     d="M 609.7372,980.27369 C 711.68348,945.95309 800.72769,873.95422 857.55819,779.89184 930.61307,658.97596 941.70047,503.00669 886.65924,370.52053 824.11052,219.96357 685.29956,113.77823 523.36673,92.614979 430.25865,80.446546 342.04534,95.292359 257.11309,137.42399 214.36851,158.62794 182.16883,181.11559 147.88361,213.70782 92.563118,266.29658 53.475404,326.06768 29.466383,394.78589 19.228832,424.08766 18.129509,418.73556 27.208397,383.79281 43.267655,321.98409 71.963011,262.10593 109.85959,211.32584 c 17.81262,-23.86829 59.68449,-67.43623 83.37232,-86.7494 69.98511,-57.060319 154.28424,-93.552317 245.57481,-106.306135 36.79842,-5.140952 115.37675,-3.895629 148.72809,2.357071 157.94925,29.612261 285.91018,124.964744 357.07101,266.078254 67.70388,134.25828 68.72398,295.53918 2.72895,431.48118 -63.5598,130.92583 -182.47455,227.36023 -324.82134,263.41536 -34.59174,8.76172 -40.8236,8.11372 -12.77623,-1.32848 z"
     id="path6" /><path
     style="fill:#ffffff;stroke-width:2.55525"
     d="m 507.52731,982.23314 c 92.41634,-34.28632 166.92101,-100.75867 210.68513,-187.97137 11.50074,-22.91858 27.2252,-71.34783 32.46703,-99.99421 6.7082,-36.6597 6.03545,-102.80675 -1.40337,-137.98335 C 716.04036,399.11869 596.10104,283.61935 439.84364,258.30652 410.83267,253.60689 354.5129,253.0603 326.09998,257.20261 217.89697,272.97752 123.10224,333.91079 63.551534,425.9666 45.814242,453.3856 40.215966,464.48314 28.103446,496.2359 22.742409,510.28976 18.330903,519.48865 18.3001,516.67788 18.20358,507.87048 30.435215,463.22867 38.524347,442.86547 79.08643,340.75634 148.47441,265.98818 246.32717,218.9501 c 94.26543,-45.31363 200.11164,-52.3719 300.80647,-20.05902 121.57442,39.01313 219.26633,135.03831 261.6201,257.15651 16.04633,46.2663 20.6835,76.38714 20.54558,133.45483 -0.1008,41.69893 -1.0581,54.20415 -5.86823,76.65742 -32.77657,152.99743 -143.54461,273.02353 -289.78399,314.0045 -14.36589,4.02578 -31.29417,8.05785 -37.61841,8.96018 -9.36531,1.3362 -7.23203,0.0578 11.49862,-6.89138 z"
     id="path7" /><path
     style="fill:#ffffff;stroke-width:2.55525"
     d="m 407.22446,986.42557 c -1.76193,-0.71055 6.86203,-6.2376 19.16435,-12.28223 C 585.59269,895.91969 639.38151,697.20939 541.57399,548.61847 527.6912,527.52748 491.67308,489.94096 471.75385,475.75804 382.01942,411.86512 269.58332,400.761 172.59143,446.21293 111.89326,474.65705 58.768289,527.8971 30.252868,588.85981 c -6.965935,14.89238 -8.18805,16.3167 -8.936226,10.41477 -0.476688,-3.76032 2.610941,-17.21703 6.861399,-29.90381 C 65.232248,458.77136 154.87059,377.57549 268.6117,351.58205 c 28.36945,-6.48331 81.64393,-8.93564 110.43801,-5.08368 126.08778,16.86757 229.90693,102.04529 269.71332,221.28445 21.32412,63.87599 21.32412,140.54378 0,204.4198 -33.32467,99.82327 -112.57908,177.3195 -214.15979,209.40885 -21.50586,6.79365 -22.17747,6.91177 -27.37878,4.8141 z"
     id="path8" /><path
     style="fill:#ffffff;stroke-width:2.55525"
     d="m 343.65716,969.69112 -8.00007,-2.57678 15.66582,-13.29195 c 30.33528,-25.73865 53.40054,-61.13752 65.89422,-101.12947 5.19743,-16.63688 5.98702,-24.3879 5.98702,-58.77075 0,-34.4154 -0.78499,-42.10623 -5.98952,-58.6806 C 398.18049,674.62539 359.66039,629.90496 303.73137,603.49162 272.2652,588.63125 256.95092,585.65821 212.39626,585.7603 c -37.87744,0.0868 -40.64931,0.45092 -63.49941,8.34195 -35.45204,12.24299 -56.838917,25.76348 -84.15509,53.2017 l -23.725013,23.83102 -2.542085,-6.95925 c -1.398146,-3.82759 -2.999866,-8.27424 -3.559375,-9.88144 -2.76058,-7.92985 26.129687,-50.83143 50.081306,-74.36993 52.718427,-51.80913 121.038447,-76.06351 195.083637,-69.25688 98.08051,9.01607 184.21478,81.34215 211.04451,177.21197 28.82115,102.98558 -15.65037,215.1339 -107.79645,271.8411 -21.78066,13.40393 -25.8421,14.42468 -39.67113,9.97058 z"
     id="path9" /><path
     style="fill:#ffffff;stroke-width:2.55525"
     d="m 270.55155,937.26944 c -9.47347,-5.26672 -17.7678,-10.11907 -18.43183,-10.78312 -0.66404,-0.66405 0.54153,-6.903 2.67902,-13.86435 5.4231,-17.66183 5.38201,-52.52115 -0.0842,-71.42768 -11.70222,-40.47577 -40.98571,-71.10697 -82.12879,-85.90872 -19.34321,-6.95896 -60.23422,-7.71687 -77.694437,-1.44007 -6.3042,2.26631 -12.235777,3.29929 -13.18128,2.29546 -0.945495,-1.0038 -6.041958,-9.7461 -11.325465,-19.42732 l -9.606378,-17.60222 8.733797,-7.14494 c 65.680013,-53.7315 157.680133,-49.41992 216.952093,10.16744 50.27907,50.5466 61.91025,119.03442 31.06867,182.94155 -5.42591,11.2431 -14.34085,25.24072 -19.81099,31.1058 l -9.94571,10.66395 z"
     id="path10" /><path
     style="fill:#ffffff;stroke-width:2.55525"
     d="m 269.09418,934.94497 c -13.29457,-7.61205 -15.87069,-10.1481 -14.66927,-14.4411 9.17699,-32.79173 6.52636,-72.9399 -6.64253,-100.61175 -10.66034,-22.40063 -35.82075,-47.73405 -58.38334,-58.7847 -26.48209,-12.97046 -60.67796,-16.55792 -90.644207,-9.50944 -8.395432,1.97472 -15.869527,3.18835 -16.60911,2.69695 -0.739582,-0.4914 -5.369206,-8.50695 -10.288057,-17.81232 l -8.943365,-16.91887 8.943365,-7.56951 c 12.16575,-10.29689 46.491574,-27.05179 65.056844,-31.75514 19.27604,-4.88341 51.62028,-4.89019 72.29681,-0.0152 55.58877,13.10652 104.81435,61.75831 119.48835,118.09555 4.88235,18.74468 4.85223,51.6747 -0.065,71.08448 -6.67359,26.34225 -34.31672,76.09732 -41.6834,75.02625 -0.95172,-0.13845 -8.98739,-4.40678 -17.85703,-9.48525 z"
     id="path11" /><path
     style="fill:#ffffff;stroke-width:2.55525"
     d="m 160.65251,756.45644 c 1.75673,-0.70885 4.63138,-0.70885 6.38811,0 1.75674,0.70883 0.31941,1.2888 -3.19406,1.2888 -3.51346,0 -4.95079,-0.57997 -3.19405,-1.2888 z"
     id="path12" /><path
     style="fill:#ffffff;stroke-width:2.55525"
     d="m 312.1448,957.28289 c -6.27259,-2.84542 -11.74069,-5.50942 -12.15135,-5.92005 -0.41065,-0.4107 5.53314,-10.12875 13.20846,-21.59572 8.57426,-12.81008 16.64232,-28.9794 20.92443,-41.93475 6.07214,-18.37118 6.97672,-25.19745 7.02668,-53.0262 0.051,-28.4124 -0.72717,-34.19595 -7.04479,-52.35803 -23.64283,-67.9692 -81.55033,-111.87961 -152.3704,-115.5403 -16.71243,-0.86386 -30.25218,0.004 -43.44374,2.78292 -22.37016,4.71338 -55.535677,20.35194 -70.627873,33.30322 l -10.579568,9.0788 -5.812717,-14.32161 c -6.592798,-16.24362 -6.595096,-16.23597 11.253128,-37.44151 21.898663,-26.01788 64.31093,-52.3197 100.04188,-62.04062 23.94831,-6.51535 65.44008,-7.65141 90.9531,-2.49031 95.10147,19.23832 163.29399,101.98419 163.29399,198.14344 0,51.19252 -19.76573,101.06625 -54.54913,137.64075 -11.30516,11.88727 -34.22437,31.0428 -37.03041,30.9495 -0.92784,-0.0308 -6.81909,-2.38418 -13.09169,-5.22953 z"
     id="path13" /><path
     style="fill:#ffffff;stroke-width:2.55525"
     d="m 373.92881,978.73402 c -1.88058,-0.75533 3.02698,-5.11298 11.49862,-10.21005 60.04415,-36.12645 102.46089,-95.17718 117.15869,-163.10318 6.56306,-30.3312 6.10196,-80.42084 -1.00694,-109.3824 -23.65707,-96.37885 -97.65345,-168.98494 -193.36115,-189.72823 -27.00906,-5.85384 -77.12868,-5.84832 -104.76513,0.0115 -62.81768,13.31943 -123.679907,54.7782 -157.147706,107.04752 -7.729623,12.07197 -14.791601,21.98923 -15.693285,22.03835 -3.899937,0.21248 -4.402729,-13.02496 -0.874545,-23.02489 24.529383,-69.52368 87.144276,-134.54909 157.539776,-163.60466 139.80712,-57.70506 297.84428,1.67333 365.94535,137.49451 54.02382,107.74548 32.10477,239.06173 -54.33153,325.49803 -41.53611,41.53612 -104.39925,75.22252 -124.96215,66.96345 z"
     id="path14" /><path
     style="fill:#ffffff;stroke-width:2.55525"
     d="m 455.14475,983.27414 c 111.1803,-41.50087 189.66595,-134.39415 212.32948,-251.30701 6.18989,-31.93136 6.52319,-85.90219 0.73895,-119.65601 C 640.90973,452.98219 501.86892,336.48901 339.06952,336.54322 195.14311,336.59116 69.710341,425.50599 21.869956,561.3947 c -7.709852,21.89952 -7.704317,15.06541 0.0136,-16.7908 C 55.532189,405.71695 163.36117,300.8882 305.66279,268.72054 c 25.04131,-5.66065 95.32436,-7.78089 124.75753,-3.76357 37.25771,5.08528 73.94554,16.52016 110.7438,34.51669 182.2109,89.11192 257.6834,304.76262 170.76334,487.92921 -23.32816,49.15935 -68.44283,103.53982 -113.20409,136.4541 -38.86498,28.5786 -86.5276,50.96182 -131.45109,61.7319 -29.559,7.08652 -34.68978,6.10725 -12.12753,-2.31473 z"
     id="path15" /><path
     style="fill:#ffffff;stroke-width:2.55525"
     d="M 563.75465,979.38464 C 701.30828,928.75252 800.30717,814.03987 830.76474,669.99271 837.77372,636.84423 840.24047,574.88386 836.00432,538.3846 823.72052,432.54577 767.83742,330.89224 685.46657,264.55035 591.20738,188.63356 471.68133,157.20139 351.58103,176.74734 268.50712,190.26736 191.00126,229.8226 129.66482,290.00263 82.881991,335.90343 52.559558,382.54159 27.975341,446.40858 l -7.376904,19.16435 1.568727,-12.77623 C 26.13489,420.4822 53.421688,352.34702 79.473436,309.70285 115.35751,250.96413 174.58498,193.52402 236.97078,156.95846 c 41.76813,-24.48113 98.8753,-45.16028 150.45991,-54.48324 35.77328,-6.465351 115.05877,-6.457888 150.75958,0.0142 186.19726,33.75507 329.00362,172.6271 366.80085,356.6954 10.4556,50.91795 10.44075,124.47184 -0.0353,174.86977 -35.16113,169.15065 -160.19561,302.10772 -325.87298,346.52145 -36.99778,9.91807 -44.02553,9.37192 -15.32809,-1.19138 z"
     id="path16" /><path
     style="fill:#ffffff;stroke-width:2.55525"
     d="m 223.74281,908.49569 c -43.85777,-31.01662 -90.723,-77.13847 -118.79246,-116.9082 -9.065969,-12.84495 -16.308929,-24.18607 -16.095472,-25.20255 0.84747,-4.03552 23.707632,-8.6595 43.051092,-8.70802 24.95246,-0.0622 45.92082,6.13057 66.09523,19.5216 19.15244,12.71265 30.94526,26.69107 42.13308,49.9419 8.36474,17.3838 9.302,21.53842 10.08788,44.7168 0.85382,25.18245 -2.80683,44.54242 -8.79996,46.54012 -1.37498,0.45833 -9.3307,-3.99742 -17.67939,-9.90165 z"
     id="path17" /><path
     style="fill:#ffffff;stroke-width:1.38121"
     d="m 56.629804,988.92479 c -16.994603,-8.40487 -29.758226,-21.05445 -37.29286,-36.95977 -3.794743,-8.0106 -4.258709,-11.38028 -1.892679,-13.74638 1.159614,-1.15957 3.299145,1.10333 8.331205,8.81168 8.408938,12.88117 22.45198,26.8767 35.061339,34.94257 5.282833,3.37935 9.87055,6.3381 10.194927,6.57503 0.620509,0.45337 -4.235012,4.45192 -5.424032,4.46677 -0.379834,0.008 -4.419889,-1.8357 -8.9779,-4.0899 z"
     id="path19" /><path
     style="fill:#ffffff;stroke-width:1.38121"
     d="m 39.096384,995.30557 c -3.566033,-0.96 -7.606089,-2.59485 -8.9779,-3.633 -12.180572,-9.21803 -18.350853,-19.65345 -18.351729,-31.03725 l -5.31e-4,-6.90608 4.327725,7.59675 c 5.389397,9.46028 21.800208,25.79708 30.522042,30.3843 3.608426,1.89788 6.560774,3.91793 6.560774,4.48898 0,1.52505 -6.668221,1.10182 -14.080381,-0.8937 z"
     id="path20" /><path
     style="fill:#ffffff;stroke-width:1.38121"
     d="M 65.486855,976.62937 C 53.08616,968.48842 36.438856,951.46312 29.154914,939.47249 c -5.052555,-8.31742 -5.171837,-8.78475 -2.716989,-10.64422 1.412163,-1.06965 2.998858,-1.96463 3.52599,-1.98878 0.52713,-0.024 4.352726,4.46228 8.501322,9.9699 8.83055,11.72325 22.951896,25.63193 34.994121,34.46715 8.144415,5.9754 8.446328,6.40425 6.482453,9.20805 -1.132894,1.61745 -2.519501,2.94083 -3.081346,2.94083 -0.561844,0 -5.67997,-3.0582 -11.37361,-6.79605 z"
     id="path21" /><path
     style="fill:#ffffff;stroke-width:1.38121"
     d="m 71.546423,960.63494 c -10.627456,-8.50297 -21.236697,-19.6104 -30.118454,-31.5327 -3.246406,-4.35772 -3.5929,-5.51017 -1.966211,-6.53962 4.58042,-2.8986 7.759243,-1.17255 16.555642,8.98942 4.894833,5.65478 13.745552,14.49743 19.668263,19.6503 9.40663,8.184 10.716783,9.88365 10.359115,13.43828 -0.225195,2.23807 -1.047675,4.27807 -1.827727,4.5333 -0.780053,0.25522 -6.481835,-3.58733 -12.670628,-8.53898 z"
     id="path22" /><path
     style="fill:#ffffff;stroke-width:1.38121"
     d="m 32.726666,915.31844 c -2.257046,-2.82232 -7.346554,-13.51372 -10.797428,-22.68187 -2.638379,-7.0095 -2.996564,-9.37523 -1.767251,-11.67225 1.40192,-2.61945 2.046697,-1.89293 7.10671,8.00835 3.060699,5.98905 7.65975,14.17035 10.220115,18.18067 3.729519,5.84153 4.241538,7.4208 2.574897,7.94198 -1.144173,0.35782 -2.967191,0.92437 -4.051152,1.25902 -1.083962,0.33473 -2.562612,-0.13147 -3.285891,-1.0359 z"
     id="path23" /><path
     style="fill:#ffffff;stroke-width:1.38121"
     d="m 56.891818,915.21787 c -6.136883,-1.46033 -7.121325,-2.31765 -12.896154,-11.23095 -6.284663,-9.7002 -17.061993,-30.00503 -17.061993,-32.1453 0,-0.63135 0.809629,-2.2551 1.799174,-3.6084 1.612619,-2.20538 2.720191,-0.93353 10.681671,12.2664 4.885375,8.09985 12.778951,19.65457 17.541281,25.67722 4.76233,6.02258 8.191074,10.87635 7.619433,10.78613 -0.571641,-0.0902 -4.029177,-0.87555 -7.683412,-1.7451 z"
     id="path25" /><path
     style="fill:#ffffff;stroke-width:1.38121"
     d="m 70.48501,936.50737 c -6.781661,-6.8133 -11.954225,-12.7638 -11.494587,-13.2234 0.93388,-0.9339 7.994518,2.42242 14.032891,6.67065 6.330542,4.45372 14.634332,18.94042 10.856702,18.94042 -0.585593,0 -6.613345,-5.57445 -13.395006,-12.38767 z"
     id="path26" /><path
     style="fill:#ffffff;stroke-width:1.38121"
     d="m 121.54693,973.99297 c -20.5767,-10.953 -28.311939,-16.63268 -28.333779,-20.80455 -0.01035,-1.9815 -0.415838,-5.0862 -0.901035,-6.89918 -0.770625,-2.87962 0.236047,-2.42812 7.960844,3.57 11.67043,9.06188 20.21823,14.79615 32.43548,21.75945 9.10929,5.19188 9.80994,5.8905 7.41024,7.38915 -3.95776,2.4717 -5.07296,2.1705 -18.57175,-5.01487 z"
     id="path27" /><path
     style="fill:#ffffff;stroke-width:1.38121"
     d="m 113.95025,985.65667 c -12.99888,-5.436 -22.100254,-10.49288 -22.080589,-12.26835 0.01035,-0.93675 0.389197,-3.08475 0.841837,-4.7733 l 0.822983,-3.07005 5.86719,4.03672 c 5.443949,3.74558 23.620489,13.73505 28.360729,15.58658 1.84162,0.71932 1.84162,0.97207 0,2.27445 -2.96095,2.09407 -5.23785,1.79962 -13.81215,-1.78605 z"
     id="path28" /><path
     style="fill:#ffffff;stroke-width:1.38121"
     d="m 131.90605,842.44514 c -1.13951,-0.7233 -5.04828,-2.5911 -8.68617,-4.15072 -6.76185,-2.89898 -14.05634,-10.92488 -29.137029,-32.05853 -7.37787,-10.3392 -21.569069,-32.7918 -21.569069,-34.12552 0,-0.52178 1.48908,-1.6272 3.309069,-2.45648 3.129449,-1.42582 3.741477,-0.8568 11.27525,10.48275 11.159025,16.79618 27.050589,37.61063 38.891289,50.93903 5.53317,6.22837 10.0603,11.66692 10.0603,12.08565 0,1.10137 -1.75914,0.79732 -4.14364,-0.71618 z"
     id="path29" /><path
     style="fill:#ffffff;stroke-width:1.38121"
     d="m 96.346591,831.87427 c -3.871313,-0.48075 -5.679165,-2.28578 -13.26639,-13.24583 -9.526898,-13.76197 -22.997359,-36.15802 -22.997359,-38.23552 0,-1.30568 5.428827,-4.76003 6.155031,-3.91643 0.216467,0.25148 3.85752,6.0891 8.091227,12.97253 4.233709,6.88335 12.705026,19.2294 18.825146,27.43567 6.12012,8.2062 11.127494,15.16065 11.127494,15.45428 0,0.2937 -0.77694,0.43447 -1.72652,0.3129 -0.94958,-0.12158 -3.743469,-0.47153 -6.208629,-0.7776 z"
     id="path30" /><path
     style="fill:#ffffff;stroke-width:1.38121"
     d="m 64.697927,819.39914 c -4.437468,-7.4106 -9.913887,-17.00017 -12.16982,-21.3102 -4.011682,-7.6644 -4.045563,-7.8984 -1.543869,-10.66275 2.536621,-2.80297 2.616944,-2.72647 9.687509,9.22455 3.921324,6.62798 10.393575,16.8816 14.382779,22.78583 3.989206,5.90422 6.877447,11.3427 6.418312,12.08565 -0.459135,0.74287 -2.605993,1.35067 -4.770791,1.35067 -3.506814,0 -4.815751,-1.46917 -12.00412,-13.47375 z"
     id="path31" /><path
     style="fill:#ffffff;stroke-width:1.38121"
     d="m 164.36461,906.49904 c -25.02607,-21.06 -47.11783,-43.08157 -61.74098,-61.54477 l -4.460749,-5.6322 6.293279,0.86265 c 5.9891,0.82087 7.66403,2.23447 34.65276,29.24587 25.62286,25.64438 28.4474,28.93313 29.27052,34.08068 0.50108,3.1335 0.73504,5.8722 0.51993,6.08602 -0.21511,0.21375 -2.25575,-1.18042 -4.53476,-3.09825 z"
     id="path32" /><path
     style="fill:#ffffff;stroke-width:1.38121"
     d="M 154.0055,919.41022 C 130.15079,900.97829 98.324168,868.42034 82.491571,846.25312 l -4.524974,-6.3354 5.035911,-0.94478 c 4.58286,-0.85972 5.362703,-0.52425 8.668343,3.729 17.647149,22.7061 43.780979,49.3347 65.956189,67.20488 10.73294,8.6493 11.53201,9.6504 11.5512,14.47162 0.0113,2.84873 -0.44553,5.17755 -1.01529,5.17508 -0.56975,0 -6.9406,-4.56698 -14.15745,-10.1433 z"
     id="path33" /><path
     style="fill:#ffffff;stroke-width:1.38121"
     d="m 151.93367,938.27497 c -31.95723,-22.47128 -60.824659,-51.3873 -82.677228,-82.8165 l -7.825011,-11.2542 4.373426,-1.5246 c 3.75376,-1.3086 4.628918,-1.1598 6.176629,1.04985 23.15723,33.06157 58.728544,68.66152 91.639554,91.7133 2.51129,1.75897 2.91279,2.95837 2.15113,6.42615 -0.51505,2.34502 -1.35322,4.24387 -1.86261,4.21972 -0.50939,-0.024 -5.89854,-3.5403 -11.97589,-7.81372 z"
     id="path34" /></svg>
